<?xml version="1.0" encoding="iso-8859-1"?>
<!-- Generator: Adobe Illustrator 19.0.0, SVG Export Plug-In . SVG Version: 6.00 Build 0)  -->
<svg version="1.1" id="Layer_1" xmlns="http://www.w3.org/2000/svg" xmlns:xlink="http://www.w3.org/1999/xlink" x="0px" y="0px"
	 viewBox="0 0 512 512" style="enable-background:new 0 0 512 512;" xml:space="preserve">
<path style="fill:#6FB0B6;" d="M115.2,499.2V12.8H384v102.4c0,7.057,5.743,12.8,12.8,12.8h102.4v371.2H115.2z"/>
<path style="fill:#9A8984;" d="M262.409,422.4V288c0-4.932-4.028-8.951-8.977-8.951H199.68c-4.949,0-8.977,4.019-8.977,8.951v134.4
	H115.2V189.585L226.56,78.217l182.903,182.912H360.96V422.4H262.409z"/>
<rect x="12.8" y="12.8" style="fill:#538489;" width="102.4" height="486.4"/>
<rect x="190.737" y="279.031" style="fill:#FEDEA1;" width="71.646" height="143.369"/>
<polygon style="fill:#C5DFE2;" points="384,128 384,7.492 504.491,128 "/>
<path style="fill:#573A32;" d="M402.099,7.501C397.303,2.697,390.793,0,384,0H25.6C11.46,0,0,11.46,0,25.6v460.8
	C0,500.54,11.46,512,25.6,512h460.8c14.14,0,25.6-11.46,25.6-25.6V128.009c0-6.793-2.697-13.303-7.501-18.099L402.099,7.501z
	 M396.8,38.4l76.791,76.8H396.8V38.4z M128,194.884l98.56-98.569l152.004,152.013H348.16V409.6h-72.951V288
	c0-11.998-9.779-21.751-21.777-21.751H199.68c-11.998,0-21.777,9.754-21.777,21.751v121.6H128V194.884z M249.591,291.84V409.6
	h-46.046V291.84H249.591z M102.4,486.4H25.6V25.6h76.8V486.4z M486.4,486.4H128v-51.2h224.009c11.972,0,21.751-9.762,21.751-21.76
	V273.929h14.071c8.849,0,16.751-5.274,20.096-13.423c3.379-8.175,1.527-17.485-4.702-23.723L241.963,75.503
	c-8.252-8.226-22.554-8.226-30.797,0L128,158.66V25.6h243.2v89.6c0,14.14,11.46,25.6,25.6,25.6h89.6V486.4z"/>
<g>
</g>
<g>
</g>
<g>
</g>
<g>
</g>
<g>
</g>
<g>
</g>
<g>
</g>
<g>
</g>
<g>
</g>
<g>
</g>
<g>
</g>
<g>
</g>
<g>
</g>
<g>
</g>
<g>
</g>
</svg>
