<?xml version="1.0" encoding="iso-8859-1"?>
<!-- Generator: Adobe Illustrator 19.0.0, SVG Export Plug-In . SVG Version: 6.00 Build 0)  -->
<svg version="1.1" id="Layer_1" xmlns="http://www.w3.org/2000/svg" xmlns:xlink="http://www.w3.org/1999/xlink" x="0px" y="0px"
	 viewBox="0 0 512.006 512.006" style="enable-background:new 0 0 512.006 512.006;" xml:space="preserve">
<rect x="89.6" y="211.2" style="fill:#FEDEA1;" width="332.8" height="76.8"/>
<path style="fill:#9A8984;" d="M422.4,441.591v-217.6c0-7.057-5.743-12.8-12.8-12.8H102.4c-7.057,0-12.8,5.743-12.8,12.8v217.6H38.4
	V162.014L256,70.4l217.6,91.614v279.578H422.4z"/>
<rect x="89.6" y="288" style="fill:#FEEBC7;" width="332.8" height="76.8"/>
<rect x="89.6" y="364.8" style="fill:#FEDEA1;" width="332.8" height="76.8"/>
<path style="fill:#573A32;" d="M17.766,184.601l7.834-3.302v247.492H12.8c-7.074,0-12.8,5.726-12.8,12.8s5.726,12.8,12.8,12.8h486.4
	c7.074,0,12.8-5.726,12.8-12.8s-5.726-12.8-12.8-12.8h-12.8V181.299l7.834,3.302c1.613,0.674,3.302,0.998,4.966,0.998
	c4.983,0,9.737-2.935,11.802-7.834c2.739-6.511-0.316-14.012-6.835-16.759l-243.2-102.4c-3.174-1.323-6.75-1.323-9.924,0
	l-243.2,102.4c-6.528,2.748-9.574,10.249-6.835,16.759C3.755,184.294,11.307,187.298,17.766,184.601z M409.6,428.791H102.4v-51.2
	h307.2V428.791z M409.6,351.991H102.4v-51.2h307.2V351.991z M409.6,275.2H102.4V224h307.2V275.2z M51.2,170.521L256,84.284
	l204.8,86.229v258.278h-25.6v-204.8c0-14.14-11.46-25.6-25.6-25.6H102.4c-14.14,0-25.6,11.46-25.6,25.6v204.8H51.2V170.521z"/>
<g>
</g>
<g>
</g>
<g>
</g>
<g>
</g>
<g>
</g>
<g>
</g>
<g>
</g>
<g>
</g>
<g>
</g>
<g>
</g>
<g>
</g>
<g>
</g>
<g>
</g>
<g>
</g>
<g>
</g>
</svg>
